<?xml version="1.0" standalone="no"?>
<!DOCTYPE svg PUBLIC "-//W3C//DTD SVG 20010904//EN"
 "http://www.w3.org/TR/2001/REC-SVG-20010904/DTD/svg10.dtd">
<svg version="1.0" xmlns="http://www.w3.org/2000/svg"
 width="2568.000000pt" height="804.000000pt" viewBox="0 0 2568.000000 804.000000"
 preserveAspectRatio="xMidYMid meet">

<g transform="translate(0.000000,804.000000) scale(0.100000,-0.100000)"
fill="#000000" stroke="none">
<path d="M11855 6794 c-249 -60 -550 -334 -819 -747 -311 -476 -640 -1197
-956 -2092 -134 -380 -158 -460 -170 -580 -37 -336 77 -543 312 -571 50 -6 65
-2 174 41 425 170 783 412 1144 774 651 653 1069 1544 1141 2436 l12 150 -27
53 c-48 95 -159 255 -225 325 -167 177 -391 258 -586 211z m564 -392 c63 -47
66 -58 65 -250 0 -197 -13 -328 -50 -507 -56 -269 -178 -560 -332 -790 -84
-126 -222 -296 -233 -289 -27 17 -120 334 -155 529 -25 141 -25 455 -1 579 68
337 213 563 440 682 142 74 212 87 266 46z m-721 -129 c-2 -5 -29 -60 -60
-123 -246 -503 -245 -1150 4 -1670 42 -87 60 -137 59 -164 0 -97 -162 -342
-364 -552 -204 -212 -417 -372 -666 -498 -185 -93 -278 -124 -433 -141 l-58
-6 6 33 c13 70 116 413 187 623 229 675 557 1458 781 1861 181 325 370 566
486 622 48 23 64 26 58 15z"/>
<path d="M14830 6195 l-1655 -423 -240 -102 c-132 -57 -245 -107 -252 -112 -6
-5 -25 -44 -43 -88 -29 -71 -31 -83 -20 -115 12 -37 41 -57 97 -70 27 -5 57 4
160 48 271 116 646 223 1095 312 201 40 613 105 663 105 11 0 26 -10 34 -21
11 -19 10 -26 -18 -63 -77 -103 -129 -192 -281 -486 -90 -173 -234 -450 -320
-615 -429 -817 -646 -1263 -702 -1440 -27 -88 -35 -213 -15 -252 20 -39 76
-66 147 -71 l55 -3 55 128 c164 387 432 935 705 1448 164 307 301 568 586
1120 100 194 122 228 179 286 142 144 400 253 815 345 225 49 387 99 477 146
92 48 162 117 178 178 16 61 -5 171 -32 169 -7 -1 -758 -191 -1668 -424z"/>
<path d="M10235 6472 c-16 -11 -35 -25 -41 -33 -7 -8 -235 -459 -509 -1004
-299 -596 -509 -1003 -527 -1022 -28 -29 -41 -33 -222 -67 -456 -87 -907 -188
-943 -211 -47 -31 -41 -15 214 525 71 151 244 522 383 823 l253 549 1 71 c1
130 -54 236 -135 257 l-39 11 -188 -138 c-621 -455 -1153 -871 -1411 -1102
-83 -74 -161 -163 -161 -183 0 -25 200 21 295 69 51 26 296 186 440 288 125
88 262 166 339 192 70 24 196 36 212 21 17 -18 -364 -804 -516 -1063 -282
-481 -572 -850 -870 -1105 -44 -37 -57 -45 -42 -25 108 143 135 212 135 340 0
50 -7 110 -14 133 -13 42 -14 39 -14 -85 0 -99 -4 -140 -19 -183 -28 -83 -61
-143 -113 -207 -26 -32 -38 -51 -27 -43 18 14 18 14 5 -2 -7 -10 -17 -16 -21
-13 -4 2 -18 -7 -31 -22 -44 -48 -232 -164 -408 -251 l-174 -86 -122 -8 c-158
-10 -294 -39 -432 -94 -143 -57 -173 -63 -173 -37 0 23 66 88 100 98 51 14
154 79 249 155 133 107 142 122 32 56 -98 -60 -230 -128 -270 -141 -23 -7 -24
-6 -18 31 3 22 12 68 20 104 23 102 8 253 -32 327 -6 12 -11 33 -11 47 0 13
-11 38 -25 54 -14 17 -25 34 -25 40 0 10 -57 85 -85 112 -9 8 -32 32 -52 53
-20 20 -44 37 -54 37 -10 0 -26 11 -37 25 -11 14 -30 25 -41 25 -12 0 -33 7
-46 16 -14 9 -32 13 -45 9 -12 -4 -27 -2 -34 4 -11 9 -44 11 -155 11 -13 0
-29 -5 -36 -10 -7 -6 -20 -8 -28 -4 -9 3 -31 -1 -48 -10 -18 -9 -43 -16 -57
-16 -14 0 -36 -10 -49 -22 -20 -19 -27 -20 -41 -10 -9 7 -26 15 -36 19 -17 6
-18 14 -12 107 3 56 10 117 14 136 l8 35 209 6 c116 4 242 11 282 18 196 30
265 42 287 50 12 5 54 44 92 85 l70 77 69 -16 c39 -8 131 -31 205 -50 153 -40
160 -41 160 -20 0 14 -34 32 -240 127 -102 48 -159 68 -585 208 -203 67 -372
123 -373 125 -10 10 60 34 99 33 53 -1 236 27 275 43 16 6 92 26 168 45 77 19
154 44 172 55 56 34 131 125 154 187 20 52 21 63 10 122 -21 117 -79 306 -115
376 -98 186 -129 227 -335 437 -146 149 -167 185 -135 233 37 57 -4 66 -81 19
-33 -19 -64 -35 -71 -35 -7 0 -17 19 -23 42 -7 22 -25 64 -41 93 -16 28 -29
59 -29 67 0 23 -39 68 -60 68 -9 0 -23 7 -31 16 -11 13 -29 15 -108 11 -138
-7 -180 -19 -216 -60 -16 -19 -82 -69 -145 -112 -126 -85 -180 -131 -180 -153
0 -11 15 -13 73 -9 39 2 82 7 94 12 17 5 24 3 30 -11 4 -10 24 -34 44 -54 21
-19 41 -49 44 -65 4 -17 14 -40 22 -53 19 -31 1 -55 -33 -46 -22 6 -24 3 -24
-29 0 -67 12 -97 47 -121 l33 -23 -77 -26 -78 -26 -8 21 c-7 19 -13 20 -68 14
-51 -5 -67 -12 -108 -46 -56 -47 -91 -52 -115 -15 -22 34 -51 32 -115 -10 -61
-40 -97 -48 -55 -12 31 27 29 65 -3 49 -10 -6 -38 -13 -63 -17 -59 -10 -90
-26 -117 -64 -25 -33 -29 -67 -12 -105 11 -23 8 -29 -37 -73 -27 -27 -73 -76
-102 -111 -30 -34 -57 -62 -62 -62 -4 0 -31 15 -58 33 -149 95 -173 105 -365
147 -158 34 -189 36 -266 14 -203 -59 -288 -94 -276 -114 12 -19 95 -20 202
-2 104 17 117 17 190 2 77 -16 92 -23 319 -160 56 -34 108 -83 103 -98 -4 -8
-37 -37 -257 -223 l-67 -57 -24 19 c-13 11 -30 19 -37 19 -7 0 -21 11 -30 25
-9 14 -25 25 -35 25 -10 0 -26 11 -34 24 -11 16 -22 22 -36 19 -12 -3 -25 1
-32 10 -15 20 -82 37 -160 42 -32 2 -80 6 -107 10 -29 4 -50 3 -54 -4 -4 -5
-21 -7 -39 -4 -24 3 -39 0 -50 -12 -10 -9 -25 -14 -35 -11 -11 4 -29 -2 -45
-14 -14 -11 -34 -20 -46 -20 -11 0 -28 -8 -38 -18 -10 -9 -43 -34 -73 -55 -30
-20 -73 -60 -95 -88 -22 -28 -51 -63 -65 -77 -22 -24 -70 -123 -70 -146 0 -5
-7 -17 -15 -26 -33 -37 -25 -360 11 -446 8 -18 13 -37 12 -41 -5 -15 26 -78
74 -154 26 -42 48 -81 48 -87 0 -6 9 -14 20 -17 11 -4 41 -23 65 -43 84 -70
103 -82 127 -82 13 0 29 -9 36 -21 11 -17 20 -20 48 -15 26 5 34 3 34 -7 0
-18 39 -27 68 -16 14 5 25 3 32 -7 15 -17 42 -18 58 -2 8 8 15 8 26 -1 9 -8
24 -10 38 -5 13 4 43 9 68 11 84 6 95 8 133 31 21 12 46 22 56 22 10 0 31 11
47 25 53 45 59 50 86 67 35 23 107 100 108 114 0 6 9 19 20 29 10 9 25 34 31
54 6 20 16 41 21 48 12 15 48 162 54 223 3 25 8 52 11 60 3 8 5 20 4 25 -2 6
-5 39 -7 75 -2 35 -9 69 -14 74 -6 6 -10 22 -10 36 0 14 -7 35 -15 46 -8 10
-15 26 -15 35 0 9 -9 28 -20 41 l-19 25 62 44 c34 24 98 79 141 121 44 43 85
78 93 78 13 0 18 -57 18 -235 0 -80 25 -142 62 -151 11 -3 24 -13 27 -22 3
-10 11 -25 18 -34 10 -14 8 -47 -12 -180 -39 -257 -33 -295 64 -397 77 -80
117 -103 240 -136 54 -14 128 -40 163 -56 35 -17 94 -35 131 -40 102 -14 105
-16 98 -52 -10 -48 -8 -69 5 -78 25 -15 131 -31 174 -27 34 4 45 2 45 -8 0 -8
-7 -14 -15 -14 -22 0 -39 -38 -25 -55 10 -12 7 -21 -14 -46 -28 -32 -33 -54
-16 -64 7 -4 3 -19 -11 -41 -18 -29 -19 -39 -10 -62 8 -18 8 -38 1 -61 -6 -22
-6 -40 1 -53 6 -10 7 -28 4 -39 -4 -12 1 -31 11 -47 10 -15 17 -39 15 -54 -2
-19 5 -35 23 -51 17 -16 23 -30 20 -44 -4 -15 3 -26 25 -42 17 -13 29 -27 25
-32 -11 -19 6 -59 29 -64 12 -4 29 -21 37 -38 11 -24 21 -31 38 -30 12 2 22
-2 22 -7 0 -6 9 -19 21 -31 19 -19 19 -20 2 -18 -10 2 -23 0 -29 -3 -13 -9
-85 -9 -229 -2 -169 8 -247 6 -258 -5 -6 -6 -15 -3 -27 11 -12 16 -22 19 -36
13 -23 -10 -131 -10 -161 -1 -12 4 -37 1 -56 -7 -29 -13 -42 -13 -86 -1 -43
11 -61 11 -103 0 -42 -11 -56 -11 -78 0 -17 9 -62 13 -126 13 -100 -1 -160 6
-180 22 -6 5 -20 2 -33 -8 -26 -18 -90 -25 -107 -12 -22 18 -105 21 -123 5
-26 -23 -72 -31 -85 -14 -18 25 -105 49 -129 37 -14 -8 -31 -8 -56 -1 -48 14
-199 18 -372 9 -42 -2 -107 0 -145 4 -57 6 -72 4 -93 -12 -25 -18 -45 -20 -66
-8 -43 26 -167 30 -197 7 -19 -14 -26 -14 -48 -3 -16 8 -32 10 -40 5 -28 -17
-29 -159 -1 -160 3 0 24 -16 46 -35 39 -34 65 -44 65 -25 0 15 39 32 53 23 16
-10 130 -12 192 -2 28 4 54 4 60 1 5 -3 59 -8 120 -10 60 -1 136 -5 167 -7 41
-3 62 1 72 11 19 19 45 18 68 -3 17 -15 20 -15 35 -1 12 13 22 14 40 7 16 -6
38 -6 58 0 19 5 51 8 72 7 21 -1 54 2 73 6 52 13 190 18 190 7 0 -12 66 -10
103 3 19 8 40 7 70 -1 32 -9 49 -10 72 -1 50 19 160 23 174 6 13 -16 75 -12
99 7 7 5 28 7 48 4 21 -4 44 -1 56 6 16 10 21 9 32 -6 16 -21 42 -22 50 -2 4
12 15 14 48 9 24 -3 52 -10 64 -16 14 -7 39 -6 80 3 73 15 140 15 170 -2 19
-10 26 -9 39 1 21 18 135 22 135 5 0 -11 6 -10 30 1 26 13 34 14 58 1 24 -12
31 -12 49 0 17 12 25 12 41 2 17 -10 24 -10 38 2 13 11 18 11 21 2 6 -18 23
-16 45 3 13 13 21 14 31 5 9 -7 44 -10 96 -7 45 2 84 0 86 -4 2 -4 16 -5 30
-2 14 2 25 0 25 -6 0 -6 16 -5 45 3 24 8 60 11 78 8 19 -3 44 0 56 7 18 9 27
8 46 -4 12 -8 26 -12 29 -8 4 3 25 5 47 3 22 -1 46 2 52 8 9 6 27 7 56 0 24
-5 51 -7 62 -4 15 5 172 8 234 4 11 -1 61 1 110 3 50 3 105 0 123 -6 21 -6 36
-6 40 0 8 10 132 13 132 2 0 -3 14 -1 30 5 25 9 33 9 39 -2 6 -10 17 -11 37
-6 41 12 163 12 167 0 2 -5 15 -2 29 7 23 15 28 15 47 2 11 -8 26 -12 32 -8
17 10 249 12 256 1 3 -5 9 -3 14 4 7 12 12 12 30 1 12 -8 24 -10 28 -5 7 10
78 10 109 -1 14 -4 22 -3 22 3 0 15 37 14 43 -1 3 -10 9 -10 23 -2 11 5 61 10
112 9 51 -1 96 3 98 7 3 5 10 6 15 2 9 -5 77 -14 104 -14 233 8 322 7 332 -2
9 -7 13 -7 13 1 0 14 156 15 165 1 4 -6 13 -7 23 -1 21 10 443 8 460 -3 7 -4
12 -3 12 2 0 9 214 8 297 -2 24 -2 45 -1 48 4 7 11 126 10 148 -2 13 -6 23 -5
33 3 12 10 20 10 34 1 10 -6 21 -8 24 -5 10 11 180 10 194 0 8 -6 12 -6 12 2
0 6 5 11 10 11 6 0 10 -7 10 -16 0 -14 2 -15 17 -3 18 16 110 14 130 -3 8 -6
14 -4 21 8 7 13 16 15 38 9 38 -10 67 -11 82 -1 7 4 22 4 35 0 12 -4 42 -6 67
-5 54 3 115 2 190 -3 30 -2 75 0 100 5 27 4 62 3 88 -3 33 -8 46 -7 58 3 13
11 17 10 26 -4 7 -13 14 -15 27 -7 10 5 21 6 25 3 3 -3 24 0 46 7 29 10 43 10
53 2 9 -8 30 -9 68 -3 30 5 59 5 64 1 11 -9 140 -4 156 5 5 4 22 0 39 -8 16
-8 32 -12 35 -8 10 10 535 8 535 -2 0 -5 6 -4 14 2 8 7 43 10 95 7 45 -2 84 1
87 6 3 5 15 2 25 -8 10 -9 19 -13 19 -7 0 10 320 14 1046 11 111 0 206 2 212
6 6 3 13 2 17 -3 3 -6 11 -8 18 -6 31 10 121 13 143 5 14 -6 26 -6 29 1 4 5
11 6 17 3 14 -9 103 -9 117 0 6 4 15 5 20 1 11 -6 123 -7 188 -2 23 2 47 1 54
-4 8 -4 19 -3 26 3 9 7 25 7 53 0 22 -5 38 -7 36 -3 -2 3 123 5 277 4 155 -2
291 -2 302 -2 11 0 73 1 138 2 64 0 117 4 117 9 0 4 -37 8 -82 9 -74 0 -721 8
-758 9 -8 1 -121 1 -250 1 -436 1 -648 4 -655 10 -3 4 -21 3 -39 -1 -33 -7
-295 -4 -372 5 -22 2 -45 0 -51 -6 -6 -6 -19 -6 -35 0 -17 6 -29 6 -36 -1 -7
-7 -16 -8 -24 -1 -8 5 -91 9 -201 8 -103 -1 -190 2 -193 6 -2 4 -14 6 -27 3
-46 -10 -92 -12 -103 -3 -7 5 -24 4 -43 -2 -23 -8 -39 -8 -56 -1 -16 7 -26 7
-34 -1 -8 -8 -25 -8 -61 -1 -27 6 -50 8 -50 5 0 -3 -16 -7 -35 -8 -20 -1 -33
2 -30 7 3 5 -5 7 -17 4 -27 -7 -88 -5 -99 2 -5 2 -17 -1 -29 -8 -14 -9 -25
-10 -37 -3 -11 6 -71 9 -143 7 -158 -3 -140 -3 -243 0 -49 2 -91 0 -93 -4 -3
-4 -14 -2 -24 4 -15 10 -22 10 -32 0 -17 -17 -38 -15 -38 4 0 14 -3 14 -15 4
-10 -8 -33 -11 -65 -8 -27 3 -53 1 -58 -4 -6 -6 -30 -3 -61 8 -49 16 -53 16
-65 -1 -7 -10 -16 -14 -19 -8 -3 5 -38 9 -76 8 -56 -2 -71 1 -76 14 -6 15 -7
15 -15 0 -8 -13 -22 -16 -79 -12 -39 2 -79 -1 -90 -6 -11 -6 -22 -7 -25 -3 -3
5 -88 8 -188 7 -101 0 -191 2 -200 7 -9 5 -19 4 -23 -2 -7 -11 -144 -8 -163 4
-7 4 -19 3 -26 -3 -7 -6 -24 -8 -42 -3 -16 4 -40 7 -54 5 -78 -8 -220 -10
-220 -3 0 5 -13 5 -29 0 -15 -4 -47 -4 -70 0 -23 4 -58 4 -77 0 -41 -10 -114
-1 -114 13 0 5 -6 4 -15 -3 -8 -6 -18 -9 -24 -6 -5 4 -21 1 -36 -6 -21 -9 -28
-9 -35 1 -5 10 -17 11 -36 6 -30 -8 -44 -8 -154 -2 -37 2 -73 -1 -84 -7 -14
-8 -20 -8 -23 0 -2 7 -22 10 -51 7 -108 -9 -132 -8 -132 6 0 10 -3 11 -14 2
-20 -17 -145 -19 -155 -2 -5 8 -11 9 -15 3 -5 -8 -241 -11 -241 -2 0 1 -15 3
-32 5 -18 1 -30 -1 -27 -7 4 -5 -35 -7 -98 -3 -121 7 -132 7 -178 2 -19 -3
-40 -1 -45 4 -6 4 -28 4 -50 -1 -25 -6 -42 -5 -46 1 -3 6 -15 6 -30 1 -27 -9
-102 -8 -118 2 -6 4 -19 2 -30 -3 -11 -6 -29 -7 -41 -3 -12 5 -45 5 -73 1 -40
-5 -56 -3 -69 9 -16 14 -20 13 -36 -1 -11 -10 -22 -13 -28 -7 -12 12 -74 14
-141 4 -64 -8 -71 7 -15 34 69 34 146 52 297 67 218 23 314 40 560 102 251 63
324 87 450 150 115 57 123 65 38 42 -139 -40 -315 -69 -523 -89 -118 -11 -237
-23 -265 -26 l-50 -6 80 55 c118 82 245 186 401 328 237 216 496 438 567 486
162 108 357 165 861 248 116 20 273 52 348 71 86 23 147 34 163 30 25 -6 26
-8 20 -69 -35 -352 -208 -762 -426 -1009 l-59 -67 23 -27 c22 -25 29 -27 123
-31 131 -5 185 13 229 77 47 67 1411 3086 1440 3187 30 104 49 250 40 312 -13
87 -48 111 -110 73z m-5716 -956 c35 -8 76 -23 92 -35 23 -17 43 -21 108 -21
74 0 131 -13 131 -30 0 -4 34 -46 75 -93 41 -47 75 -90 75 -96 0 -19 -25 -25
-110 -27 -50 -1 -102 -9 -125 -18 -22 -9 -77 -20 -123 -25 -96 -10 -171 -44
-229 -102 -46 -47 -61 -86 -62 -167 -1 -37 -5 -62 -11 -60 -5 2 -104 96 -218
210 -190 188 -213 208 -251 214 -35 6 -45 13 -60 42 l-18 34 68 64 c38 35 74
64 81 64 7 0 34 11 60 25 38 20 56 24 90 19 65 -9 106 -23 112 -39 6 -16 41
-20 50 -6 3 4 32 13 64 20 32 6 67 18 78 26 24 18 42 18 123 1z m-2127 -752
c5 -16 14 -58 22 -94 7 -36 15 -72 17 -80 3 -10 -5 -16 -26 -18 -16 -2 -34 -8
-39 -13 -6 -5 -16 -9 -24 -9 -11 0 -12 21 -6 118 6 110 14 136 38 129 6 -2 14
-17 18 -33z m65 28 c8 -5 10 -32 6 -90 -3 -46 -9 -79 -14 -75 -6 6 -39 147
-39 168 0 8 33 6 47 -3z m-141 -48 c-3 -26 -6 -69 -6 -97 0 -59 -6 -58 -19 4
-5 24 -14 61 -19 82 -8 31 -7 39 7 47 35 21 44 13 37 -36z m240 12 c-18 -42
-64 -154 -70 -170 -4 -10 -8 -17 -11 -15 -5 6 13 198 20 209 8 13 67 -10 61
-24z m-291 -85 c8 -41 14 -76 12 -78 -2 -2 -25 28 -50 67 l-47 69 28 15 c15 8
30 11 34 8 4 -4 14 -41 23 -81z m364 63 c2 -2 -25 -39 -60 -83 -35 -44 -65
-79 -66 -77 -2 2 8 28 22 59 13 31 31 72 39 92 14 33 17 35 38 24 13 -6 25
-13 27 -15z m-409 -95 c30 -44 61 -89 69 -100 10 -15 11 -19 1 -19 -7 0 -52
38 -99 85 -82 82 -85 86 -67 100 11 8 25 15 30 15 6 0 36 -37 66 -81z m460 51
c15 -28 -10 -74 -69 -127 -42 -38 -47 -40 -63 -25 -10 8 -18 20 -18 25 0 17
110 147 125 147 8 0 19 -9 25 -20z m-502 -94 c45 -46 82 -87 82 -91 0 -4 -13
-23 -30 -41 l-29 -34 -69 93 c-38 50 -71 99 -74 107 -5 14 18 50 32 50 3 0 43
-38 88 -84z m-82 -58 c83 -114 84 -117 18 -65 -122 95 -117 89 -103 120 7 15
15 27 19 27 4 0 33 -37 66 -82z m-60 -29 c83 -64 84 -70 7 -47 -87 27 -94 32
-79 63 6 14 13 25 15 25 2 0 28 -18 57 -41z m390 -27 c-15 -15 -16 -15 -16 5
0 12 6 23 13 26 19 6 21 -13 3 -31z m88 18 c31 -12 25 -40 -9 -40 -23 0 -40
24 -29 41 7 11 7 11 38 -1z m345 -66 c13 -50 9 -64 -18 -64 -14 0 -20 10 -24
38 -4 37 6 72 22 72 5 0 14 -20 20 -46z m-694 -31 c13 -8 -12 -10 -96 -6 -63
2 -120 6 -126 8 -17 6 -16 30 2 48 13 13 26 12 107 -12 52 -15 102 -32 113
-38z m136 14 c-7 -18 -15 -25 -26 -21 -16 6 -13 17 14 47 19 23 25 9 12 -26z
m39 14 c0 -6 -4 -13 -10 -16 -5 -3 -10 1 -10 9 0 9 5 16 10 16 6 0 10 -4 10
-9z m460 -40 c0 -38 -1 -40 -51 -56 -28 -9 -53 -14 -57 -11 -6 7 87 106 100
106 4 0 8 -18 8 -39z m-665 -19 l50 -7 -4 -40 c-4 -53 -5 -54 -48 -44 -21 4
-74 15 -118 24 -90 18 -100 24 -90 54 6 19 14 21 83 20 42 0 100 -4 127 -7z
m745 -45 c0 -16 -9 -28 -25 -35 -23 -11 -25 -10 -25 17 0 32 7 41 32 41 12 0
18 -7 18 -23z m-80 -17 c0 -22 -28 -40 -64 -40 -42 0 -40 19 6 40 54 24 58 25
58 0z m-764 -30 c54 -11 100 -22 102 -25 3 -3 -42 -5 -100 -5 -107 0 -118 4
-118 41 0 12 4 12 116 -11z m234 1 c0 -11 -31 -24 -39 -16 -3 3 1 10 9 15 19
12 30 12 30 1z m610 -20 c0 -5 -4 -21 -10 -36 -9 -23 -12 -25 -32 -14 -32 16
-31 15 -18 38 11 21 60 30 60 12z m769 -10 l23 -18 -31 0 c-23 0 -31 5 -31 19
0 23 9 22 39 -1z m-859 -5 c0 -11 -19 -15 -25 -6 -3 5 1 10 9 10 9 0 16 -2 16
-4z m-725 -25 c-4 -8 -110 -61 -120 -61 -7 0 -15 52 -10 60 4 6 35 10 71 10
38 0 63 -4 59 -9z m115 2 c0 -5 -12 -15 -28 -24 -15 -9 -60 -40 -101 -68 -40
-29 -74 -51 -76 -49 -9 11 -26 50 -23 53 2 2 37 21 78 42 64 32 94 43 143 52
4 0 7 -2 7 -6z m590 -13 c0 -5 -2 -10 -4 -10 -3 0 -8 5 -11 10 -3 6 -1 10 4
10 6 0 11 -4 11 -10z m87 -33 c13 -14 0 -57 -17 -57 -9 0 -32 13 -68 36 -2 1
2 12 8 24 9 17 17 20 38 15 15 -3 32 -12 39 -18z m-655 -4 c36 -33 23 -48
-114 -122 -76 -42 -77 -42 -88 -21 -9 16 -8 25 1 36 11 14 170 124 178 124 2
0 13 -7 23 -17z m622 -74 c6 -5 4 -18 -3 -33 l-14 -25 -53 26 -53 26 22 28 22
27 35 -21 c19 -11 39 -24 44 -28z m-266 22 c3 -8 -1 -12 -9 -9 -7 2 -15 10
-17 17 -3 8 1 12 9 9 7 -2 15 -10 17 -17z m-129 -10 c12 -21 5 -31 -21 -31
-11 0 -18 7 -18 18 0 35 23 43 39 13z m-165 -10 c6 -10 -22 -37 -29 -29 -8 7
5 38 15 38 5 0 11 -4 14 -9z m-55 -31 c-10 -28 -49 -64 -112 -103 -27 -17 -29
-17 -53 2 l-25 19 73 41 c40 22 82 47 93 55 30 23 35 19 24 -14z m521 -13 c34
-18 61 -38 60 -43 -1 -5 -22 -30 -46 -56 l-44 -47 -15 36 c-18 44 -14 51 19
29 28 -18 36 -20 36 -8 0 4 -14 16 -31 26 -56 33 -71 53 -57 76 7 11 13 20 14
20 1 0 29 -15 64 -33z m-455 -9 c-25 -87 -59 -194 -64 -200 -4 -4 -17 -1 -29
8 -25 17 -25 18 10 116 15 41 30 63 52 78 39 25 39 25 31 -2z m65 -22 c0 -30
-59 -216 -68 -216 -5 0 -16 6 -25 13 -15 11 -14 20 16 112 17 55 36 105 40
112 12 18 37 4 37 -21z m288 -10 c10 -11 27 -43 37 -70 l18 -49 -24 -18 c-13
-10 -27 -15 -31 -11 -5 5 -68 169 -68 178 0 1 11 -1 24 -3 14 -3 33 -15 44
-27z m-84 12 c3 -7 18 -49 34 -93 27 -72 29 -81 14 -92 -28 -22 -36 -15 -60
50 -13 34 -29 76 -37 93 -10 23 -11 34 -2 43 15 15 47 14 51 -1z m-132 -30
c-9 -9 -12 -7 -12 12 0 19 3 21 12 12 9 -9 9 -15 0 -24z m82 -60 c14 -36 26
-73 26 -80 0 -8 5 -19 12 -26 8 -8 4 -14 -17 -22 -36 -14 -44 -5 -72 71 -18
48 -19 62 -10 103 13 58 23 50 61 -46z m-105 41 c10 -34 9 -53 -5 -115 -18
-74 -18 -74 -51 -74 -37 0 -37 -1 -19 60 38 134 50 170 56 170 4 0 12 -18 19
-41z m-215 -1 c-3 -13 -12 -38 -20 -56 -13 -33 -14 -33 -39 -16 -32 21 -30 25
20 63 48 37 48 37 39 9z m271 -179 c-6 -9 -55 -13 -55 -4 0 2 5 28 11 57 l12
52 18 -48 c11 -26 17 -52 14 -57z m2075 -89 c0 -24 -20 -37 -30 -19 -10 16 7
52 21 44 5 -4 9 -15 9 -25z m310 -131 c0 -6 -4 -7 -10 -4 -5 3 -10 11 -10 16
0 6 5 7 10 4 6 -3 10 -11 10 -16z m60 7 c0 -3 -4 -17 -10 -31 -12 -31 -30 -24
-30 11 0 17 5 24 20 24 11 0 20 -2 20 -4z m74 -5 c3 -5 3 -35 0 -68 l-6 -59
-34 32 c-34 31 -34 31 -19 67 15 36 46 50 59 28z m-179 -37 c19 -14 36 -33 39
-42 12 -42 17 -92 10 -92 -12 0 -114 134 -114 149 0 19 30 12 65 -15z m229 18
c7 -11 -17 -92 -27 -92 -5 0 -7 10 -3 23 3 12 6 34 6 50 0 25 13 36 24 19z
m-283 -61 l27 -38 -37 9 c-33 8 -38 13 -38 39 0 39 17 36 48 -10z m347 18 c3
-19 -60 -108 -66 -91 -2 6 4 35 13 62 12 37 21 50 33 48 9 -2 18 -10 20 -19z
m52 -39 c0 -9 -63 -51 -68 -46 -1 2 8 19 20 39 17 25 26 32 36 25 6 -6 12 -14
12 -18z m-207 -48 l37 -38 -51 -2 c-48 -2 -50 -1 -44 20 4 13 9 31 11 41 3 9
6 17 8 17 1 0 19 -17 39 -38z m247 2 c8 -21 5 -33 -21 -71 l-31 -45 -37 36
c-30 31 -33 39 -21 46 8 5 31 20 50 34 44 32 48 32 60 0z m-340 -65 c0 -5 -7
-9 -15 -9 -9 0 -15 9 -15 21 0 18 2 19 15 9 8 -7 15 -16 15 -21z m380 -7 c0
-16 -67 -68 -76 -59 -2 2 10 22 28 45 31 41 48 46 48 14z m20 -60 c0 -23 -57
-49 -73 -33 -9 9 -8 14 3 21 8 5 24 15 35 23 23 17 35 13 35 -11z m-360 8 c0
-5 -4 -10 -10 -10 -5 0 -10 5 -10 10 0 6 5 10 10 10 6 0 10 -4 10 -10z m184
-22 c8 -13 7 -21 -2 -30 -9 -9 -17 -7 -37 12 -13 12 -22 27 -19 32 9 14 46 5
58 -14z m196 -53 c0 -23 -4 -25 -41 -25 -45 0 -49 16 -8 37 36 19 49 16 49
-12z m-12 -57 c20 -20 13 -36 -19 -43 -35 -8 -34 -9 -43 28 -6 25 -4 27 22 27
15 0 33 -5 40 -12z m-130 -40 c-5 -32 -28 -35 -28 -4 0 17 5 26 16 26 10 0 14
-7 12 -22z m134 -53 c-6 -32 -16 -38 -52 -30 -22 5 -27 10 -23 23 9 23 23 32
54 32 23 0 26 -3 21 -25z m-22 -64 c0 -16 -14 -20 -27 -10 -19 17 -16 28 7 22
11 -3 20 -9 20 -12z m-30 -48 c0 -8 -5 -23 -11 -34 -10 -20 -11 -20 -30 -3
-22 19 -24 36 -8 65 10 20 11 20 30 3 10 -9 19 -23 19 -31z m-363 11 c-9 -9
-28 6 -21 18 4 6 10 6 17 -1 6 -6 8 -13 4 -17z m203 8 c0 -17 -39 -44 -74 -52
-48 -11 -45 3 7 34 43 26 67 33 67 18z m-370 -11 c0 -6 -4 -13 -10 -16 -5 -3
-10 1 -10 9 0 9 5 16 10 16 6 0 10 -4 10 -9z m19 -53 c-8 -14 -14 -17 -22 -9
-7 7 -6 15 3 25 17 22 32 9 19 -16z m461 -13 c23 -24 16 -37 -8 -13 -17 17
-27 2 -12 -17 22 -26 2 -30 -25 -5 -23 22 -24 25 -8 42 21 23 25 23 53 -7z
m-412 -10 c-13 -29 -38 -33 -38 -7 0 23 8 32 31 32 16 0 17 -3 7 -25z m64 -2
c21 -19 23 -36 5 -51 -10 -9 -15 -2 -24 28 -11 44 -8 48 19 23z m-46 -50 c-11
-11 -19 6 -11 24 8 17 8 17 12 0 3 -10 2 -21 -1 -24z m339 7 c28 -29 28 -30 9
-45 -25 -19 -27 -19 -53 11 -14 16 -20 32 -16 45 9 27 27 24 60 -11z m-235
-31 c0 -27 -3 -30 -22 -23 -33 9 -33 12 -13 34 25 28 35 25 35 -11z m55 -5 c3
-20 4 -39 0 -42 -9 -10 -24 12 -31 46 -5 25 -3 32 9 32 9 0 17 -14 22 -36z
m80 -9 c0 -29 -4 -41 -17 -43 -18 -3 -31 16 -42 61 -6 27 -5 28 26 25 31 -3
33 -5 33 -43z m55 -20 c14 -16 6 -35 -16 -35 -8 0 -14 10 -14 25 0 28 12 32
30 10z"/>
<path d="M20161 3983 c-387 -642 -706 -1171 -708 -1175 -2 -5 65 -8 149 -8
l153 0 195 335 195 334 437 1 438 0 5 -22 c3 -13 37 -153 75 -313 38 -159 72
-300 75 -312 5 -23 8 -23 150 -23 80 0 145 2 145 5 0 11 -591 2311 -598 2328
-6 15 -170 -250 -711 -1150z m704 146 c51 -217 92 -395 91 -397 -2 -1 -149 -1
-328 0 l-325 3 231 397 c127 218 232 395 234 393 2 -2 45 -180 97 -396z"/>
<path d="M18411 5055 c-252 -45 -487 -170 -681 -365 -553 -554 -546 -1413 14
-1779 284 -185 709 -190 1059 -12 374 191 641 545 733 971 26 122 24 343 -4
467 -55 242 -195 457 -376 577 -76 50 -206 110 -286 131 -91 24 -347 29 -459
10z m337 -271 c125 -25 213 -74 313 -173 71 -71 94 -101 127 -171 62 -132 76
-200 76 -375 0 -163 -11 -224 -66 -365 -121 -307 -402 -559 -703 -631 -115
-28 -299 -30 -395 -6 -217 56 -371 205 -452 437 -32 94 -33 97 -32 270 0 161
3 182 28 265 34 115 92 237 156 329 60 87 191 216 279 275 199 134 452 189
669 145z"/>
<path d="M15661 3948 c-101 -601 -185 -1105 -188 -1120 l-5 -28 131 0 c72 0
131 1 131 3 1 1 36 202 78 447 l78 445 131 3 131 3 229 -451 228 -450 158 0
c86 0 157 2 157 5 0 2 -108 207 -241 456 -243 455 -249 468 -201 469 7 0 48
14 90 32 191 78 348 219 427 382 57 118 78 206 79 331 0 78 -5 114 -23 167
-46 138 -149 254 -285 322 -133 67 -151 69 -556 74 l-365 3 -184 -1093z m924
822 c83 -32 174 -124 201 -200 56 -162 -18 -390 -163 -505 -134 -105 -209
-125 -485 -125 -114 0 -208 3 -208 7 0 12 141 828 146 841 3 11 46 13 227 10
204 -4 227 -6 282 -28z"/>
<path d="M22175 5018 c-3 -13 -86 -504 -185 -1093 -99 -588 -183 -1083 -186
-1098 l-6 -29 429 5 c390 4 436 6 513 25 119 29 172 47 275 97 640 308 932
1169 583 1717 -95 148 -269 286 -435 343 -137 48 -217 55 -614 55 l-369 0 -5
-22z m740 -258 c248 -36 433 -183 516 -411 41 -114 55 -233 41 -361 -35 -322
-201 -601 -455 -765 -90 -59 -162 -90 -277 -120 -87 -24 -117 -26 -364 -31
l-269 -4 6 23 c3 13 70 396 148 852 l143 827 220 0 c122 0 253 -5 291 -10z"/>
<path d="M24110 4100 c0 -5 5 -10 10 -10 6 0 10 5 10 10 0 6 -4 10 -10 10 -5
0 -10 -4 -10 -10z"/>
<path d="M24110 4045 c0 -8 5 -15 10 -15 6 0 10 7 10 15 0 8 -4 15 -10 15 -5
0 -10 -7 -10 -15z"/>
<path d="M24110 3990 c0 -16 5 -30 10 -30 6 0 10 14 10 30 0 17 -4 30 -10 30
-5 0 -10 -13 -10 -30z"/>
<path d="M24110 3943 c0 -5 -3 -255 -5 -558 -3 -302 -11 -602 -16 -665 -20
-213 -45 -234 -299 -250 -156 -10 -827 -17 -835 -8 -3 2 -28 1 -57 -3 -29 -3
-57 -4 -61 -2 -4 3 -35 4 -67 4 -39 0 -60 4 -60 12 0 8 -3 8 -12 -1 -7 -7 -24
-12 -38 -12 -14 0 -31 5 -38 12 -7 7 -12 8 -12 2 0 -9 -395 -13 -425 -4 -5 1
-14 1 -20 0 -38 -7 -95 -8 -99 -1 -3 5 -22 5 -43 1 -41 -9 -174 -6 -191 3 -5
4 -12 3 -16 -1 -10 -10 -436 -9 -436 2 0 5 -6 4 -12 -1 -17 -13 -135 -16 -142
-4 -4 6 -18 5 -36 -2 -25 -10 -33 -9 -40 3 -5 8 -10 10 -10 5 0 -15 -413 -17
-422 -2 -6 9 -8 9 -8 0 0 -15 -262 -15 -272 1 -6 8 -8 7 -8 -1 0 -10 -32 -13
-127 -12 -71 0 -197 0 -281 -1 -84 -1 -157 2 -162 5 -6 3 -10 2 -10 -3 0 -17
22 -19 187 -18 90 1 163 -3 163 -7 0 -5 4 -6 8 -3 22 13 465 6 474 -8 6 -8 8
-8 8 0 0 13 470 12 490 -1 7 -4 16 -1 21 6 6 10 13 11 26 4 10 -6 44 -8 76 -5
32 3 60 3 63 -1 2 -4 23 -3 46 2 24 4 44 4 46 1 1 -4 140 -7 308 -7 168 0 307
-3 309 -6 2 -3 19 -3 37 -1 72 9 254 9 265 0 7 -5 14 -5 17 1 6 10 100 6 117
-5 5 -3 9 0 9 7 0 7 11 9 33 5 17 -3 37 -6 42 -6 6 1 138 3 294 5 156 2 285 6
288 9 3 2 15 1 28 -4 13 -5 26 -6 29 -3 9 10 79 11 97 2 9 -5 20 -5 23 -1 7 7
279 5 481 -2 143 -6 201 -31 230 -101 24 -57 34 -261 39 -814 3 -305 8 -556
11 -559 3 -3 7 -3 10 0 3 3 8 254 11 559 5 553 15 757 39 814 16 39 51 69 95
84 50 17 290 31 538 31 134 0 212 4 212 10 0 6 -78 10 -212 10 -248 0 -488 14
-538 31 -44 15 -79 45 -95 84 -24 56 -34 260 -40 810 -2 303 -5 553 -5 558 0
4 -4 7 -10 7 -5 0 -10 -3 -10 -7z"/>
<path d="M6085 3358 l-50 -53 53 50 c48 46 57 55 49 55 -1 0 -25 -24 -52 -52z"/>
<path d="M7549 3024 c-21 -24 -22 -26 -3 -16 25 13 50 42 37 42 -5 0 -20 -12
-34 -26z"/>
<path d="M13850 2480 c0 -5 5 -10 11 -10 5 0 7 5 4 10 -3 6 -8 10 -11 10 -2 0
-4 -4 -4 -10z"/>
<path d="M13898 2476 c-15 -11 -13 -12 17 -12 37 1 45 10 19 20 -19 7 -16 8
-36 -8z"/>
<path d="M13960 2472 c0 -4 27 -7 59 -7 33 0 57 3 55 7 -7 10 -114 10 -114 0z"/>
<path d="M14175 2470 c-19 -8 -19 -9 2 -9 12 -1 25 4 28 9 7 12 -2 12 -30 0z"/>
<path d="M14225 2472 c8 -8 84 -11 89 -3 2 3 -18 7 -46 7 -27 1 -47 -1 -43 -4z"/>
<path d="M19545 2459 c-36 -4 -42 -7 -20 -9 34 -3 68 0 74 6 9 8 -5 9 -54 3z"/>
<path d="M19700 2462 c0 -5 7 -13 16 -16 22 -8 24 -8 24 6 0 6 -3 8 -7 5 -3
-4 -12 -2 -20 4 -8 7 -13 8 -13 1z"/>
<path d="M19410 2452 c0 -5 14 -7 30 -4 17 2 30 6 30 8 0 2 -13 4 -30 4 -16 0
-30 -4 -30 -8z"/>
<path d="M19665 2450 c-3 -6 1 -7 9 -4 18 7 21 14 7 14 -6 0 -13 -4 -16 -10z"/>
<path d="M19754 2453 c8 -8 86 -10 86 -2 0 4 -21 7 -46 7 -26 1 -44 -2 -40 -5z"/>
<path d="M24110 910 c0 -16 5 -30 10 -30 6 0 10 14 10 30 0 17 -4 30 -10 30
-5 0 -10 -13 -10 -30z"/>
<path d="M24110 855 c0 -8 5 -15 10 -15 6 0 10 7 10 15 0 8 -4 15 -10 15 -5 0
-10 -7 -10 -15z"/>
<path d="M24110 800 c0 -5 5 -10 10 -10 6 0 10 5 10 10 0 6 -4 10 -10 10 -5 0
-10 -4 -10 -10z"/>
</g>
</svg>
