<?xml version="1.0" standalone="no"?>
<!DOCTYPE svg PUBLIC "-//W3C//DTD SVG 20010904//EN"
 "http://www.w3.org/TR/2001/REC-SVG-20010904/DTD/svg10.dtd">
<svg version="1.0" xmlns="http://www.w3.org/2000/svg"
 width="2568.000000pt" height="804.000000pt" viewBox="0 0 2568.000000 804.000000"
 preserveAspectRatio="xMidYMid meet">

<g transform="translate(0.000000,804.000000) scale(0.100000,-0.100000)"
fill="#000000" stroke="none">
<path d="M11855 6794 c-249 -60 -550 -334 -819 -747 -311 -476 -640 -1197
-956 -2092 -134 -380 -158 -460 -170 -580 -37 -336 77 -543 312 -571 50 -6 65
-2 174 41 425 170 783 412 1144 774 651 653 1069 1544 1141 2436 l12 150 -27
53 c-48 95 -159 255 -225 325 -167 177 -391 258 -586 211z m564 -392 c63 -47
66 -58 65 -250 0 -197 -13 -328 -50 -507 -56 -269 -178 -560 -332 -790 -84
-126 -222 -296 -233 -289 -27 17 -120 334 -155 529 -25 141 -25 455 -1 579 68
337 213 563 440 682 142 74 212 87 266 46z m-721 -129 c-2 -5 -29 -60 -60
-123 -246 -503 -245 -1150 4 -1670 42 -87 60 -137 59 -164 0 -97 -162 -342
-364 -552 -204 -212 -417 -372 -666 -498 -185 -93 -278 -124 -433 -141 l-58
-6 6 33 c13 70 116 413 187 623 229 675 557 1458 781 1861 181 325 370 566
486 622 48 23 64 26 58 15z"/>
<path d="M14830 6195 l-1655 -423 -240 -102 c-132 -57 -245 -107 -252 -112 -6
-5 -25 -44 -43 -88 -29 -71 -31 -83 -20 -115 12 -37 41 -57 97 -70 27 -5 57 4
160 48 271 116 646 223 1095 312 201 40 613 105 663 105 11 0 26 -10 34 -21
11 -19 10 -26 -18 -63 -77 -103 -129 -192 -281 -486 -90 -173 -234 -450 -320
-615 -429 -817 -646 -1263 -702 -1440 -27 -88 -35 -213 -15 -252 20 -39 76
-66 147 -71 l55 -3 55 128 c164 387 432 935 705 1448 164 307 301 568 586
1120 100 194 122 228 179 286 142 144 400 253 815 345 225 49 387 99 477 146
92 48 162 117 178 178 16 61 -5 171 -32 169 -7 -1 -758 -191 -1668 -424z"/>
<path d="M10235 6472 c-16 -11 -35 -25 -41 -33 -7 -8 -235 -459 -509 -1004
-299 -596 -509 -1003 -527 -1022 -28 -29 -41 -33 -222 -67 -456 -87 -907 -188
-943 -211 -47 -31 -41 -15 214 525 71 151 244 522 383 823 l253 549 1 71 c1
130 -54 236 -135 257 l-39 11 -188 -138 c-621 -455 -1153 -871 -1411 -1102
-83 -74 -161 -163 -161 -183 0 -25 200 21 295 69 51 26 296 186 440 288 125
88 262 166 339 192 70 24 196 36 212 21 17 -18 -364 -804 -516 -1063 -281
-480 -568 -844 -869 -1104 l-63 -55 49 65 c106 140 136 290 90 448 -11 40 -12
33 -12 -86 0 -109 -4 -139 -24 -202 -68 -208 -240 -359 -611 -540 l-155 -75
-120 -7 c-191 -12 -298 -38 -497 -118 -88 -36 -108 -38 -108 -13 0 28 58 76
132 110 37 17 89 45 115 63 48 33 263 208 263 214 0 2 -44 -24 -97 -58 -99
-62 -297 -167 -316 -167 -11 0 -6 37 16 140 23 102 8 253 -32 327 -6 12 -11
33 -11 47 0 13 -11 38 -25 54 -14 17 -25 34 -25 40 0 10 -57 85 -85 112 -9 8
-32 32 -52 53 -20 20 -44 37 -54 37 -10 0 -26 11 -37 25 -11 14 -30 25 -41 25
-12 0 -33 7 -46 16 -14 9 -32 13 -45 9 -12 -4 -27 -2 -34 4 -11 9 -44 11 -155
11 -13 0 -29 -5 -36 -10 -7 -6 -20 -8 -28 -4 -9 3 -31 -1 -48 -10 -18 -9 -43
-16 -57 -16 -14 0 -36 -10 -49 -22 -20 -19 -27 -20 -41 -10 -9 7 -26 15 -36
19 -17 6 -18 14 -12 107 3 56 10 117 14 136 l8 35 209 6 c116 4 242 11 282 18
196 30 265 42 287 50 12 5 54 44 92 85 l70 77 69 -16 c39 -8 131 -31 205 -50
153 -40 160 -41 160 -20 0 14 -34 32 -240 127 -102 48 -159 68 -585 208 -203
67 -372 123 -373 125 -10 10 60 34 99 33 53 -1 236 27 275 43 16 6 92 26 168
45 77 19 154 44 172 55 56 34 131 125 154 187 20 52 21 63 10 122 -21 117 -79
306 -115 376 -98 186 -129 227 -335 437 -146 149 -167 185 -135 233 37 57 -4
66 -81 19 -33 -19 -64 -35 -71 -35 -7 0 -17 19 -23 42 -7 22 -25 64 -41 93
-16 28 -29 59 -29 67 0 23 -39 68 -60 68 -9 0 -23 7 -31 16 -11 13 -29 15
-108 11 -138 -7 -180 -19 -216 -60 -16 -19 -82 -69 -145 -112 -126 -85 -180
-131 -180 -153 0 -11 15 -13 73 -9 39 2 82 7 94 12 17 5 24 3 30 -11 4 -10 24
-34 44 -54 21 -19 41 -49 44 -65 4 -17 14 -40 22 -53 19 -31 1 -55 -33 -46
-22 6 -24 3 -24 -29 0 -67 12 -97 47 -121 l33 -23 -77 -26 -78 -26 -8 21 c-7
19 -13 20 -68 14 -51 -5 -67 -12 -108 -46 -56 -47 -91 -52 -115 -15 -22 34
-51 32 -115 -10 -61 -40 -97 -48 -55 -12 31 27 29 65 -3 49 -10 -6 -38 -13
-63 -17 -59 -10 -90 -26 -117 -64 -25 -33 -29 -67 -12 -105 11 -23 8 -29 -37
-73 -27 -27 -73 -76 -102 -111 -30 -34 -57 -62 -62 -62 -4 0 -31 15 -58 33
-149 95 -173 105 -365 147 -158 34 -189 36 -266 14 -203 -59 -288 -94 -276
-114 12 -19 95 -20 202 -2 104 17 117 17 190 2 77 -16 92 -23 319 -160 56 -34
108 -83 103 -98 -4 -8 -37 -37 -257 -223 l-67 -57 -24 19 c-13 11 -30 19 -37
19 -7 0 -21 11 -30 25 -9 14 -25 25 -35 25 -10 0 -26 11 -34 24 -11 16 -22 22
-36 19 -12 -3 -25 1 -32 10 -15 20 -82 37 -160 42 -32 2 -80 6 -107 10 -29 4
-50 3 -54 -4 -4 -5 -21 -7 -39 -4 -24 3 -39 0 -50 -12 -10 -9 -25 -14 -35 -11
-11 4 -29 -2 -45 -14 -14 -11 -34 -20 -46 -20 -11 0 -28 -8 -38 -18 -10 -9
-43 -34 -73 -55 -30 -20 -73 -60 -95 -88 -22 -28 -51 -63 -65 -77 -22 -24 -70
-123 -70 -146 0 -5 -7 -17 -15 -26 -33 -37 -25 -360 11 -446 8 -18 13 -37 12
-41 -5 -15 26 -78 74 -154 26 -42 48 -81 48 -87 0 -6 9 -14 20 -17 11 -4 41
-23 65 -43 84 -70 103 -82 127 -82 13 0 29 -9 36 -21 11 -17 20 -20 48 -15 26
5 34 3 34 -7 0 -18 39 -27 68 -16 14 5 25 3 32 -7 15 -17 42 -18 58 -2 8 8 15
8 26 -1 9 -8 24 -10 38 -5 13 4 43 9 68 11 84 6 95 8 133 31 21 12 46 22 56
22 10 0 31 11 47 25 53 45 59 50 86 67 35 23 107 100 108 114 0 6 9 19 20 29
10 9 25 34 31 54 6 20 16 41 21 48 12 15 48 162 54 223 3 25 8 52 11 60 3 8 5
20 4 25 -2 6 -5 39 -7 75 -2 35 -9 69 -14 74 -6 6 -10 22 -10 36 0 14 -7 35
-15 46 -8 10 -15 26 -15 35 0 9 -9 28 -20 41 l-19 25 62 44 c34 24 98 79 141
121 44 43 85 78 93 78 13 0 18 -57 18 -235 0 -80 25 -142 62 -151 11 -3 24
-13 27 -22 3 -10 11 -25 18 -34 10 -14 8 -47 -12 -180 -39 -257 -33 -295 64
-397 77 -80 117 -103 240 -136 54 -14 128 -40 163 -56 35 -17 94 -35 131 -40
102 -14 105 -16 98 -52 -10 -48 -8 -69 5 -78 25 -15 131 -31 174 -27 34 4 45
2 45 -8 0 -8 -7 -14 -15 -14 -22 0 -39 -38 -25 -55 10 -12 7 -21 -14 -46 -28
-32 -33 -54 -16 -64 7 -4 3 -19 -11 -41 -18 -29 -19 -39 -10 -62 8 -18 8 -38
1 -61 -6 -22 -6 -40 1 -53 6 -10 7 -28 4 -39 -4 -12 1 -31 11 -47 10 -15 17
-39 15 -54 -2 -19 5 -35 23 -51 17 -16 23 -30 20 -44 -4 -15 3 -26 25 -42 17
-13 29 -27 25 -32 -11 -19 6 -59 29 -64 12 -4 29 -21 37 -38 11 -23 21 -31 36
-30 14 2 25 -6 32 -22 13 -27 7 -30 -63 -27 -178 6 -225 6 -225 -2 0 -5 -15
-5 -32 -1 -58 13 -105 15 -150 6 -33 -6 -50 -4 -63 5 -11 8 -24 10 -34 5 -9
-4 -34 -6 -56 -4 -55 5 -166 3 -191 -3 -12 -3 -25 -1 -28 5 -9 14 -169 4 -175
-10 -1 -6 -9 -2 -15 7 -10 13 -27 17 -72 16 -130 -3 -161 -2 -218 8 -39 7 -62
7 -70 1 -7 -6 -24 -8 -38 -6 -15 3 -30 0 -33 -5 -5 -8 -15 -6 -32 5 -13 9 -30
14 -36 12 -7 -2 -20 0 -30 5 -13 6 -25 5 -40 -5 -37 -23 -73 -28 -87 -12 -7 9
-29 15 -51 15 -22 0 -39 4 -39 9 0 4 -30 8 -67 7 -95 0 -304 11 -310 18 -3 3
-19 -2 -34 -10 -20 -10 -35 -12 -47 -5 -10 5 -24 6 -33 0 -10 -5 -40 -5 -73 1
-31 5 -63 7 -71 4 -7 -3 -22 -1 -32 5 -14 7 -23 5 -38 -9 -18 -17 -27 -18 -75
-9 -30 6 -73 12 -96 13 -22 2 -49 6 -60 10 -11 3 -31 -2 -49 -14 -27 -17 -31
-18 -46 -4 -34 30 -78 -7 -70 -59 1 -10 -4 -26 -13 -36 -13 -14 -13 -20 0 -48
20 -40 51 -73 69 -73 8 0 15 -4 15 -9 0 -5 14 -14 30 -21 26 -11 33 -10 49 4
20 18 47 21 56 6 4 -6 11 -7 17 -4 13 8 219 13 232 6 16 -9 81 -10 96 -2 9 5
45 4 80 -2 89 -13 135 -11 176 8 24 11 38 13 47 6 16 -14 48 -17 71 -7 11 5
26 3 38 -4 15 -9 23 -9 34 0 8 6 25 9 39 7 14 -3 25 -2 25 1 0 4 31 7 70 7 40
-1 77 4 86 11 12 9 22 9 36 2 11 -6 32 -7 48 -4 16 4 35 3 42 -1 18 -11 71 -9
94 4 14 7 34 8 64 1 26 -6 54 -6 69 -1 14 5 50 8 79 7 36 -2 58 3 68 13 13 13
18 12 38 -7 24 -23 65 -21 117 5 22 11 28 11 42 -4 16 -15 18 -15 34 0 15 16
18 16 45 0 22 -13 32 -14 47 -5 10 7 42 9 77 7 90 -7 93 -7 183 1 60 5 90 3
107 -6 20 -10 27 -10 44 6 18 17 25 17 57 6 26 -10 37 -10 43 -2 5 9 10 8 19
-3 11 -13 17 -13 47 2 32 15 37 15 64 -1 20 -12 31 -14 35 -6 5 6 21 8 41 4
21 -3 34 -2 34 5 0 14 27 13 32 -2 3 -9 12 -8 32 5 15 10 32 14 39 10 7 -4 30
-9 52 -10 167 -8 262 -9 270 -2 6 4 27 4 48 -1 20 -4 37 -4 37 0 0 17 34 20
58 4 13 -9 27 -12 31 -7 3 5 53 10 111 11 58 1 119 3 135 3 17 1 71 -1 120 -3
50 -3 115 -1 145 4 30 4 56 4 58 0 3 -9 143 -9 158 0 6 4 14 5 18 1 9 -9 70
-8 85 2 8 4 16 2 21 -5 6 -9 12 -9 28 1 17 11 25 11 46 0 20 -11 31 -11 55 -1
17 6 36 8 43 4 18 -12 129 -5 145 8 10 8 18 6 33 -7 14 -13 23 -15 32 -8 7 6
22 9 33 7 37 -8 140 -4 172 5 24 7 35 6 44 -5 9 -11 15 -12 25 -3 11 9 18 8
28 0 10 -9 16 -9 21 -1 4 6 14 10 23 8 10 -1 22 1 28 5 6 3 25 0 42 -9 25 -12
34 -13 51 -2 16 10 23 10 32 1 8 -8 18 -9 30 -3 11 7 27 6 43 0 17 -6 27 -6
32 1 3 6 16 8 27 5 12 -3 27 0 34 6 9 7 13 7 13 0 0 -6 27 -9 73 -7 39 1 79
-1 88 -6 10 -5 24 -2 38 7 14 11 26 13 34 6 12 -10 99 -8 116 2 5 4 12 2 15
-2 3 -5 25 -7 48 -5 24 2 50 4 58 4 32 0 207 -10 216 -12 5 -2 19 2 30 9 12 6
25 8 28 4 4 -4 26 -8 49 -9 23 -1 44 -2 47 -3 3 -1 10 -1 15 0 33 6 467 5 471
-2 3 -5 11 -5 17 -1 15 10 337 10 337 1 0 -4 10 -4 23 0 22 8 126 7 182 -1 17
-3 35 -2 40 1 17 11 65 10 65 0 0 -7 5 -6 14 1 9 8 32 8 77 2 52 -7 67 -6 81
6 13 11 21 13 30 5 17 -13 68 -17 92 -7 11 5 26 3 37 -3 12 -8 20 -8 24 -1 4
5 15 7 24 4 24 -7 267 -8 314 0 20 3 37 2 37 -2 0 -11 82 -10 98 0 7 5 18 4
25 -1 14 -12 82 -10 110 2 10 5 23 4 30 -3 11 -8 73 -9 97 0 3 1 10 0 15 -1
35 -8 261 -6 266 2 4 6 12 7 20 2 19 -12 471 -13 486 -1 9 6 15 4 19 -7 3 -9
11 -13 18 -9 6 4 47 8 91 8 45 1 86 4 92 8 6 4 14 3 17 -2 7 -11 317 -8 335 3
8 5 16 3 21 -4 6 -9 13 -9 28 -1 12 7 23 7 26 2 4 -5 23 -7 44 -5 47 6 51 6
87 0 17 -3 46 -2 65 2 19 4 59 5 87 2 32 -3 54 -2 56 5 2 6 10 5 20 -4 10 -7
17 -9 17 -4 0 11 133 11 141 -1 4 -5 13 -5 20 0 18 11 119 13 141 2 9 -4 19
-4 22 1 3 5 34 7 68 4 35 -2 68 -4 73 -3 58 6 194 5 206 -1 9 -5 20 -5 24 -1
3 4 322 8 708 9 1366 4 1527 5 1527 12 0 5 -33 8 -72 8 -725 6 -1209 12 -1217
17 -5 4 -12 2 -16 -4 -4 -6 -11 -8 -16 -4 -5 3 -195 7 -422 9 -226 2 -416 4
-422 5 -5 1 -12 1 -15 0 -17 -7 -68 -5 -83 2 -11 6 -23 6 -30 -1 -8 -6 -18 -6
-27 -1 -7 4 -23 5 -34 0 -12 -4 -30 -4 -40 0 -11 3 -37 3 -58 0 -21 -4 -41 -3
-44 1 -8 13 -42 11 -46 -3 -3 -7 -9 -8 -19 -2 -17 11 -159 12 -153 2 3 -5 -2
-8 -11 -8 -8 0 -18 6 -21 13 -4 12 -41 16 -60 5 -8 -5 -123 -3 -134 2 -3 1 -9
2 -13 1 -50 -8 -82 -9 -101 -1 -15 5 -27 5 -35 -3 -6 -6 -11 -7 -11 -1 0 12
-183 12 -192 -1 -5 -7 -8 -7 -8 1 0 5 -16 10 -35 10 -19 0 -35 -4 -35 -8 0
-11 -37 -10 -44 0 -3 5 -38 8 -78 7 -40 -1 -82 2 -93 5 -11 4 -29 4 -40 0 -11
-4 -28 -4 -37 1 -11 6 -18 5 -21 -4 -3 -9 -8 -9 -17 -1 -8 8 -22 9 -45 3 -20
-6 -43 -6 -59 1 -17 6 -26 6 -26 0 0 -6 -7 -10 -15 -10 -8 0 -15 6 -15 13 0 9
-2 9 -9 -1 -6 -11 -17 -11 -46 -3 -26 7 -44 7 -57 0 -11 -6 -27 -7 -36 -3 -23
9 -152 11 -152 2 0 -12 -48 -9 -55 2 -6 10 -88 6 -106 -5 -4 -3 -10 -1 -13 3
-5 9 -90 7 -133 -3 -12 -3 -24 -1 -28 4 -6 11 -175 8 -192 -2 -7 -4 -14 -3
-18 2 -4 7 -15 6 -31 -1 -16 -8 -28 -8 -32 -2 -8 11 -134 13 -143 2 -3 -5 -27
-2 -54 6 -27 8 -53 12 -59 8 -9 -5 -56 -11 -103 -12 -39 -1 -69 3 -80 12 -7 6
-14 5 -18 -2 -3 -5 -17 -7 -31 -4 -15 4 -24 2 -24 -6 0 -6 -5 -8 -11 -4 -20
12 -112 17 -105 5 11 -16 -10 -13 -24 4 -9 11 -17 12 -32 4 -14 -7 -23 -7 -33
1 -7 6 -15 7 -18 3 -3 -4 -80 -8 -171 -7 -91 1 -166 -2 -166 -6 0 -11 -49 -9
-56 1 -8 13 -42 11 -46 -3 -3 -9 -11 -8 -29 4 -15 9 -31 13 -40 8 -8 -4 -45
-5 -82 -1 -38 4 -71 3 -73 -1 -3 -5 -22 -5 -42 -2 -40 8 -42 8 -89 1 -18 -3
-35 -2 -38 3 -3 5 -18 5 -33 2 -29 -7 -187 -7 -262 1 -25 3 -51 0 -57 -5 -7
-6 -21 -7 -30 -3 -25 10 -293 12 -293 2 0 -5 -5 -5 -11 -2 -17 11 -131 13
-158 3 -15 -5 -27 -5 -30 1 -4 5 -28 5 -61 0 -58 -9 -78 -8 -96 3 -13 8 -70 4
-98 -7 -11 -5 -21 -3 -25 4 -6 8 -15 9 -34 2 -18 -7 -28 -7 -33 0 -3 6 -12 8
-19 5 -8 -3 -38 -1 -67 3 -29 5 -55 5 -58 1 -3 -4 -32 -8 -65 -9 -33 -1 -67
-1 -75 -2 -8 0 -26 2 -40 6 -14 4 -34 6 -45 5 -11 -1 -27 -1 -35 -1 -71 2
-105 1 -120 -4 -10 -3 -21 -1 -25 5 -4 7 -12 7 -25 0 -11 -6 -28 -7 -42 -2
-13 5 -48 7 -78 5 -30 -2 -62 -4 -70 -4 -8 -1 -32 2 -53 6 -25 5 -46 3 -62 -5
-20 -11 -26 -10 -40 4 -9 9 -22 13 -28 9 -14 -9 -97 -11 -97 -2 0 4 -23 2 -51
-3 -79 -14 -80 -3 -5 32 60 27 92 34 245 51 290 32 566 90 820 171 102 32 263
104 296 133 l20 17 -20 -7 c-153 -49 -326 -80 -590 -105 -115 -11 -230 -23
-255 -26 l-45 -6 80 55 c118 82 245 186 401 328 237 216 496 438 567 486 162
108 357 165 861 248 116 20 273 52 348 71 86 23 147 34 163 30 25 -6 26 -8 20
-69 -35 -352 -208 -762 -426 -1009 l-59 -67 23 -27 c22 -25 29 -27 123 -31
131 -5 185 13 229 77 47 67 1411 3086 1440 3187 30 104 49 250 40 312 -13 87
-48 111 -110 73z m-5716 -956 c35 -8 76 -23 92 -35 23 -17 43 -21 108 -21 74
0 131 -13 131 -30 0 -4 34 -46 75 -93 41 -47 75 -90 75 -96 0 -19 -25 -25
-110 -27 -50 -1 -102 -9 -125 -18 -22 -9 -77 -20 -123 -25 -96 -10 -171 -44
-229 -102 -46 -47 -61 -86 -62 -167 -1 -37 -5 -62 -11 -60 -5 2 -104 96 -218
210 -190 188 -213 208 -251 214 -35 6 -45 13 -60 42 l-18 34 68 64 c38 35 74
64 81 64 7 0 34 11 60 25 38 20 56 24 90 19 65 -9 106 -23 112 -39 6 -16 41
-20 50 -6 3 4 32 13 64 20 32 6 67 18 78 26 24 18 42 18 123 1z m-2127 -752
c5 -16 14 -58 22 -94 7 -36 15 -72 17 -80 3 -10 -5 -16 -26 -18 -16 -2 -34 -8
-39 -13 -6 -5 -16 -9 -24 -9 -11 0 -12 21 -6 118 6 110 14 136 38 129 6 -2 14
-17 18 -33z m65 28 c8 -5 10 -32 6 -90 -3 -46 -9 -79 -14 -75 -6 6 -39 147
-39 168 0 8 33 6 47 -3z m-141 -48 c-3 -26 -6 -69 -6 -97 0 -59 -6 -58 -19 4
-5 24 -14 61 -19 82 -8 31 -7 39 7 47 35 21 44 13 37 -36z m240 12 c-18 -42
-64 -154 -70 -170 -4 -10 -8 -17 -11 -15 -5 6 13 198 20 209 8 13 67 -10 61
-24z m-291 -85 c8 -41 14 -76 12 -78 -2 -2 -25 28 -50 67 l-47 69 28 15 c15 8
30 11 34 8 4 -4 14 -41 23 -81z m364 63 c2 -2 -25 -39 -60 -83 -35 -44 -65
-79 -66 -77 -2 2 8 28 22 59 13 31 31 72 39 92 14 33 17 35 38 24 13 -6 25
-13 27 -15z m-409 -95 c30 -44 61 -89 69 -100 10 -15 11 -19 1 -19 -7 0 -52
38 -99 85 -82 82 -85 86 -67 100 11 8 25 15 30 15 6 0 36 -37 66 -81z m460 51
c15 -28 -10 -74 -69 -127 -42 -38 -47 -40 -63 -25 -10 8 -18 20 -18 25 0 17
110 147 125 147 8 0 19 -9 25 -20z m-502 -94 c45 -46 82 -87 82 -91 0 -4 -13
-23 -30 -41 l-29 -34 -69 93 c-38 50 -71 99 -74 107 -5 14 18 50 32 50 3 0 43
-38 88 -84z m-82 -58 c83 -114 84 -117 18 -65 -122 95 -117 89 -103 120 7 15
15 27 19 27 4 0 33 -37 66 -82z m-60 -29 c83 -64 84 -70 7 -47 -87 27 -94 32
-79 63 6 14 13 25 15 25 2 0 28 -18 57 -41z m390 -27 c-15 -15 -16 -15 -16 5
0 12 6 23 13 26 19 6 21 -13 3 -31z m88 18 c31 -12 25 -40 -9 -40 -23 0 -40
24 -29 41 7 11 7 11 38 -1z m345 -66 c13 -50 9 -64 -18 -64 -14 0 -20 10 -24
38 -4 37 6 72 22 72 5 0 14 -20 20 -46z m-694 -31 c13 -8 -12 -10 -96 -6 -63
2 -120 6 -126 8 -17 6 -16 30 2 48 13 13 26 12 107 -12 52 -15 102 -32 113
-38z m136 14 c-7 -18 -15 -25 -26 -21 -16 6 -13 17 14 47 19 23 25 9 12 -26z
m39 14 c0 -6 -4 -13 -10 -16 -5 -3 -10 1 -10 9 0 9 5 16 10 16 6 0 10 -4 10
-9z m460 -40 c0 -38 -1 -40 -51 -56 -28 -9 -53 -14 -57 -11 -6 7 87 106 100
106 4 0 8 -18 8 -39z m-665 -19 l50 -7 -4 -40 c-4 -53 -5 -54 -48 -44 -21 4
-74 15 -118 24 -90 18 -100 24 -90 54 6 19 14 21 83 20 42 0 100 -4 127 -7z
m745 -45 c0 -16 -9 -28 -25 -35 -23 -11 -25 -10 -25 17 0 32 7 41 32 41 12 0
18 -7 18 -23z m-80 -17 c0 -22 -28 -40 -64 -40 -42 0 -40 19 6 40 54 24 58 25
58 0z m-764 -30 c54 -11 100 -22 102 -25 3 -3 -42 -5 -100 -5 -107 0 -118 4
-118 41 0 12 4 12 116 -11z m234 1 c0 -11 -31 -24 -39 -16 -3 3 1 10 9 15 19
12 30 12 30 1z m610 -20 c0 -5 -4 -21 -10 -36 -9 -23 -12 -25 -32 -14 -32 16
-31 15 -18 38 11 21 60 30 60 12z m769 -10 l23 -18 -31 0 c-23 0 -31 5 -31 19
0 23 9 22 39 -1z m-859 -5 c0 -11 -19 -15 -25 -6 -3 5 1 10 9 10 9 0 16 -2 16
-4z m-725 -25 c-4 -8 -110 -61 -120 -61 -7 0 -15 52 -10 60 4 6 35 10 71 10
38 0 63 -4 59 -9z m115 2 c0 -5 -12 -15 -28 -24 -15 -9 -60 -40 -101 -68 -40
-29 -74 -51 -76 -49 -9 11 -26 50 -23 53 2 2 37 21 78 42 64 32 94 43 143 52
4 0 7 -2 7 -6z m590 -13 c0 -5 -2 -10 -4 -10 -3 0 -8 5 -11 10 -3 6 -1 10 4
10 6 0 11 -4 11 -10z m87 -33 c13 -14 0 -57 -17 -57 -9 0 -32 13 -68 36 -2 1
2 12 8 24 9 17 17 20 38 15 15 -3 32 -12 39 -18z m-655 -4 c36 -33 23 -48
-114 -122 -76 -42 -77 -42 -88 -21 -9 16 -8 25 1 36 11 14 170 124 178 124 2
0 13 -7 23 -17z m622 -74 c6 -5 4 -18 -3 -33 l-14 -25 -53 26 -53 26 22 28 22
27 35 -21 c19 -11 39 -24 44 -28z m-266 22 c3 -8 -1 -12 -9 -9 -7 2 -15 10
-17 17 -3 8 1 12 9 9 7 -2 15 -10 17 -17z m-129 -10 c12 -21 5 -31 -21 -31
-11 0 -18 7 -18 18 0 35 23 43 39 13z m-165 -10 c6 -10 -22 -37 -29 -29 -8 7
5 38 15 38 5 0 11 -4 14 -9z m-55 -31 c-10 -28 -49 -64 -112 -103 -27 -17 -29
-17 -53 2 l-25 19 73 41 c40 22 82 47 93 55 30 23 35 19 24 -14z m521 -13 c34
-18 61 -38 60 -43 -1 -5 -22 -30 -46 -56 l-44 -47 -15 36 c-18 44 -14 51 19
29 28 -18 36 -20 36 -8 0 4 -14 16 -31 26 -56 33 -71 53 -57 76 7 11 13 20 14
20 1 0 29 -15 64 -33z m-455 -9 c-25 -87 -59 -194 -64 -200 -4 -4 -17 -1 -29
8 -25 17 -25 18 10 116 15 41 30 63 52 78 39 25 39 25 31 -2z m65 -22 c0 -30
-59 -216 -68 -216 -5 0 -16 6 -25 13 -15 11 -14 20 16 112 17 55 36 105 40
112 12 18 37 4 37 -21z m288 -10 c10 -11 27 -43 37 -70 l18 -49 -24 -18 c-13
-10 -27 -15 -31 -11 -5 5 -68 169 -68 178 0 1 11 -1 24 -3 14 -3 33 -15 44
-27z m-84 12 c3 -7 18 -49 34 -93 27 -72 29 -81 14 -92 -28 -22 -36 -15 -60
50 -13 34 -29 76 -37 93 -10 23 -11 34 -2 43 15 15 47 14 51 -1z m-132 -30
c-9 -9 -12 -7 -12 12 0 19 3 21 12 12 9 -9 9 -15 0 -24z m82 -60 c14 -36 26
-73 26 -80 0 -8 5 -19 12 -26 8 -8 4 -14 -17 -22 -36 -14 -44 -5 -72 71 -18
48 -19 62 -10 103 13 58 23 50 61 -46z m-105 41 c10 -34 9 -53 -5 -115 -18
-74 -18 -74 -51 -74 -37 0 -37 -1 -19 60 38 134 50 170 56 170 4 0 12 -18 19
-41z m-215 -1 c-3 -13 -12 -38 -20 -56 -13 -33 -14 -33 -39 -16 -32 21 -30 25
20 63 48 37 48 37 39 9z m271 -179 c-6 -9 -55 -13 -55 -4 0 2 5 28 11 57 l12
52 18 -48 c11 -26 17 -52 14 -57z m2075 -89 c0 -24 -20 -37 -30 -19 -10 16 7
52 21 44 5 -4 9 -15 9 -25z m310 -131 c0 -6 -4 -7 -10 -4 -5 3 -10 11 -10 16
0 6 5 7 10 4 6 -3 10 -11 10 -16z m60 7 c0 -3 -4 -17 -10 -31 -12 -31 -30 -24
-30 11 0 17 5 24 20 24 11 0 20 -2 20 -4z m74 -5 c3 -5 3 -35 0 -68 l-6 -59
-34 32 c-34 31 -34 31 -19 67 15 36 46 50 59 28z m-179 -37 c19 -14 36 -33 39
-42 12 -42 17 -92 10 -92 -12 0 -114 134 -114 149 0 19 30 12 65 -15z m229 18
c7 -11 -17 -92 -27 -92 -5 0 -7 10 -3 23 3 12 6 34 6 50 0 25 13 36 24 19z
m-283 -61 l27 -38 -37 9 c-33 8 -38 13 -38 39 0 39 17 36 48 -10z m347 18 c3
-19 -60 -108 -66 -91 -2 6 4 35 13 62 12 37 21 50 33 48 9 -2 18 -10 20 -19z
m52 -39 c0 -9 -63 -51 -68 -46 -1 2 8 19 20 39 17 25 26 32 36 25 6 -6 12 -14
12 -18z m-207 -48 l37 -38 -51 -2 c-48 -2 -50 -1 -44 20 4 13 9 31 11 41 3 9
6 17 8 17 1 0 19 -17 39 -38z m247 2 c8 -21 5 -33 -21 -71 l-31 -45 -37 36
c-30 31 -33 39 -21 46 8 5 31 20 50 34 44 32 48 32 60 0z m-340 -65 c0 -5 -7
-9 -15 -9 -9 0 -15 9 -15 21 0 18 2 19 15 9 8 -7 15 -16 15 -21z m380 -7 c0
-16 -67 -68 -76 -59 -2 2 10 22 28 45 31 41 48 46 48 14z m20 -60 c0 -23 -57
-49 -73 -33 -9 9 -8 14 3 21 8 5 24 15 35 23 23 17 35 13 35 -11z m-360 8 c0
-5 -4 -10 -10 -10 -5 0 -10 5 -10 10 0 6 5 10 10 10 6 0 10 -4 10 -10z m184
-22 c8 -13 7 -21 -2 -30 -9 -9 -17 -7 -37 12 -13 12 -22 27 -19 32 9 14 46 5
58 -14z m196 -53 c0 -23 -4 -25 -41 -25 -45 0 -49 16 -8 37 36 19 49 16 49
-12z m-12 -57 c20 -20 13 -36 -19 -43 -35 -8 -34 -9 -43 28 -6 25 -4 27 22 27
15 0 33 -5 40 -12z m-130 -40 c-5 -32 -28 -35 -28 -4 0 17 5 26 16 26 10 0 14
-7 12 -22z m134 -53 c-6 -32 -16 -38 -52 -30 -22 5 -27 10 -23 23 9 23 23 32
54 32 23 0 26 -3 21 -25z m-22 -64 c0 -16 -14 -20 -27 -10 -19 17 -16 28 7 22
11 -3 20 -9 20 -12z m-30 -48 c0 -8 -5 -23 -11 -34 -10 -20 -11 -20 -30 -3
-22 19 -24 36 -8 65 10 20 11 20 30 3 10 -9 19 -23 19 -31z m-363 11 c-9 -9
-28 6 -21 18 4 6 10 6 17 -1 6 -6 8 -13 4 -17z m203 8 c0 -17 -39 -44 -74 -52
-48 -11 -45 3 7 34 43 26 67 33 67 18z m-370 -11 c0 -6 -4 -13 -10 -16 -5 -3
-10 1 -10 9 0 9 5 16 10 16 6 0 10 -4 10 -9z m19 -53 c-8 -14 -14 -17 -22 -9
-7 7 -6 15 3 25 17 22 32 9 19 -16z m461 -13 c23 -24 16 -37 -8 -13 -17 17
-27 2 -12 -17 22 -26 2 -30 -25 -5 -23 22 -24 25 -8 42 21 23 25 23 53 -7z
m-412 -10 c-13 -29 -38 -33 -38 -7 0 23 8 32 31 32 16 0 17 -3 7 -25z m64 -2
c21 -19 23 -36 5 -51 -10 -9 -15 -2 -24 28 -11 44 -8 48 19 23z m-46 -50 c-11
-11 -19 6 -11 24 8 17 8 17 12 0 3 -10 2 -21 -1 -24z m339 7 c28 -29 28 -30 9
-45 -25 -19 -27 -19 -53 11 -14 16 -20 32 -16 45 9 27 27 24 60 -11z m-235
-31 c0 -27 -3 -30 -22 -23 -33 9 -33 12 -13 34 25 28 35 25 35 -11z m55 -5 c3
-20 4 -39 0 -42 -9 -10 -24 12 -31 46 -5 25 -3 32 9 32 9 0 17 -14 22 -36z
m80 -9 c0 -29 -4 -41 -17 -43 -18 -3 -31 16 -42 61 -6 27 -5 28 26 25 31 -3
33 -5 33 -43z m55 -20 c14 -16 6 -35 -16 -35 -8 0 -14 10 -14 25 0 28 12 32
30 10z"/>
<path d="M20161 3983 c-387 -642 -706 -1171 -708 -1175 -2 -5 65 -8 149 -8
l153 0 195 335 195 334 437 1 438 0 5 -22 c3 -13 37 -153 75 -313 38 -159 72
-300 75 -312 5 -23 8 -23 150 -23 80 0 145 2 145 5 0 11 -591 2311 -598 2328
-6 15 -170 -250 -711 -1150z m704 146 c51 -217 92 -395 91 -397 -2 -1 -149 -1
-328 0 l-325 3 231 397 c127 218 232 395 234 393 2 -2 45 -180 97 -396z"/>
<path d="M18411 5055 c-252 -45 -487 -170 -681 -365 -553 -554 -546 -1413 14
-1779 284 -185 709 -190 1059 -12 374 191 641 545 733 971 26 122 24 343 -4
467 -55 242 -195 457 -376 577 -76 50 -206 110 -286 131 -91 24 -347 29 -459
10z m337 -271 c125 -25 213 -74 313 -173 71 -71 94 -101 127 -171 62 -132 76
-200 76 -375 0 -163 -11 -224 -66 -365 -121 -307 -402 -559 -703 -631 -115
-28 -299 -30 -395 -6 -217 56 -371 205 -452 437 -32 94 -33 97 -32 270 0 161
3 182 28 265 34 115 92 237 156 329 60 87 191 216 279 275 199 134 452 189
669 145z"/>
<path d="M15661 3948 c-101 -601 -185 -1105 -188 -1120 l-5 -28 131 0 c72 0
131 1 131 3 1 1 36 202 78 447 l78 445 131 3 131 3 229 -451 228 -450 158 0
c86 0 157 2 157 5 0 2 -108 207 -241 456 -243 455 -249 468 -201 469 7 0 48
14 90 32 191 78 348 219 427 382 57 118 78 206 79 331 0 78 -5 114 -23 167
-46 138 -149 254 -285 322 -133 67 -151 69 -556 74 l-365 3 -184 -1093z m924
822 c83 -32 174 -124 201 -200 56 -162 -18 -390 -163 -505 -134 -105 -209
-125 -485 -125 -114 0 -208 3 -208 7 0 12 141 828 146 841 3 11 46 13 227 10
204 -4 227 -6 282 -28z"/>
<path d="M22175 5018 c-3 -13 -86 -504 -185 -1093 -99 -588 -183 -1083 -186
-1098 l-6 -29 429 5 c390 4 436 6 513 25 119 29 172 47 275 97 640 308 932
1169 583 1717 -95 148 -269 286 -435 343 -137 48 -217 55 -614 55 l-369 0 -5
-22z m740 -258 c248 -36 433 -183 516 -411 41 -114 55 -233 41 -361 -35 -322
-201 -601 -455 -765 -90 -59 -162 -90 -277 -120 -87 -24 -117 -26 -364 -31
l-269 -4 6 23 c3 13 70 396 148 852 l143 827 220 0 c122 0 253 -5 291 -10z"/>
<path d="M24110 4100 c0 -5 5 -10 10 -10 6 0 10 5 10 10 0 6 -4 10 -10 10 -5
0 -10 -4 -10 -10z"/>
<path d="M24110 4055 c0 -14 5 -25 10 -25 6 0 10 11 10 25 0 14 -4 25 -10 25
-5 0 -10 -11 -10 -25z"/>
<path d="M24110 3948 c0 -40 -2 -266 -5 -503 -9 -781 -16 -864 -74 -917 -42
-38 -84 -47 -272 -59 -178 -11 -1027 -7 -1046 4 -6 4 -14 3 -17 -2 -6 -9 -50
-6 -68 5 -5 3 -15 0 -23 -6 -8 -6 -20 -8 -27 -4 -16 10 -257 13 -284 3 -11 -4
-28 -3 -38 3 -12 7 -22 6 -32 -2 -9 -9 -18 -9 -26 -3 -11 9 -621 11 -638 3 -3
-1 -9 -1 -15 0 -28 8 -132 7 -142 -1 -6 -6 -14 -6 -16 -2 -6 10 -48 10 -64 0
-6 -4 -24 -2 -39 4 -20 7 -30 7 -32 0 -2 -6 -10 -8 -20 -3 -15 7 -272 7 -347
0 -16 -2 -40 0 -52 4 -13 4 -25 3 -29 -3 -3 -6 -13 -7 -23 -4 -26 11 -71 12
-71 2 0 -5 -8 -6 -17 -2 -30 11 -112 12 -117 0 -3 -6 -7 -7 -13 0 -10 13 -103
13 -103 1 0 -6 -5 -5 -11 1 -8 8 -20 8 -34 3 -13 -5 -26 -6 -29 -2 -4 3 -50 5
-104 3 -53 -1 -436 -3 -849 -4 -414 -1 -753 -5 -753 -9 0 -5 57 -8 128 -8 158
-1 680 -7 1252 -15 239 -3 444 -5 455 -5 26 1 29 1 106 -1 36 -1 72 2 79 6 9
5 15 4 18 -4 3 -8 8 -9 16 -1 9 7 23 7 45 -1 22 -8 36 -8 43 -1 5 5 24 6 46 2
20 -4 93 -7 162 -5 69 1 132 -2 141 -6 9 -5 19 -5 23 -1 10 10 176 10 176 0 0
-5 7 -5 18 0 9 5 35 7 57 5 22 -2 54 -3 70 -3 17 1 39 1 50 1 11 -1 38 -1 60
-1 48 1 46 1 210 -3 72 -2 135 0 142 5 6 5 14 5 18 -2 9 -14 52 -13 58 3 4 8
8 9 14 1 5 -7 53 -10 138 -9 72 1 142 -1 157 -6 20 -5 28 -3 32 8 5 11 10 13
20 4 7 -6 35 -9 67 -6 30 3 61 5 69 4 106 -5 210 -2 210 6 0 5 5 4 11 -2 7 -7
21 -8 39 -3 18 5 32 4 39 -3 9 -9 14 -8 22 3 7 9 12 11 15 4 4 -10 58 -10 101
1 12 3 25 1 28 -5 3 -6 14 -7 23 -2 9 4 211 7 447 7 465 0 490 -2 546 -53 59
-54 66 -136 74 -957 3 -291 8 -531 10 -534 3 -2 7 -2 10 0 2 3 7 243 10 534 6
630 11 768 30 860 17 81 48 117 116 135 61 17 301 29 552 30 138 0 217 4 217
10 0 6 -79 10 -217 10 -251 1 -491 13 -552 30 -23 6 -55 23 -72 38 -58 53 -65
136 -74 917 -3 237 -5 463 -5 503 0 41 -4 72 -10 72 -6 0 -10 -31 -10 -72z"/>
<path d="M6080 3355 c-41 -41 -72 -75 -69 -75 2 0 38 34 79 75 41 41 72 75 69
75 -2 0 -38 -34 -79 -75z"/>
<path d="M7552 3030 c-48 -34 -55 -47 -14 -26 41 22 68 44 61 50 -3 3 -25 -7
-47 -24z"/>
<path d="M14730 2468 c0 -5 20 -8 45 -8 25 0 45 3 45 8 0 4 -20 7 -45 7 -25 0
-45 -3 -45 -7z"/>
<path d="M14834 2468 c-3 -5 8 -7 25 -6 33 2 33 11 0 13 -11 1 -22 -2 -25 -7z"/>
<path d="M14970 2470 c-9 -6 -10 -10 -3 -10 6 0 15 5 18 10 8 12 4 12 -15 0z"/>
<path d="M15008 2463 c7 -3 16 -2 19 1 4 3 -2 6 -13 5 -11 0 -14 -3 -6 -6z"/>
<path d="M15078 2463 c7 -3 16 -2 19 1 4 3 -2 6 -13 5 -11 0 -14 -3 -6 -6z"/>
<path d="M15208 2463 c7 -3 16 -2 19 1 4 3 -2 6 -13 5 -11 0 -14 -3 -6 -6z"/>
<path d="M18303 2453 c9 -2 23 -2 30 0 6 3 -1 5 -18 5 -16 0 -22 -2 -12 -5z"/>
<path d="M18378 2453 c7 -3 16 -2 19 1 4 3 -2 6 -13 5 -11 0 -14 -3 -6 -6z"/>
<path d="M18428 2453 c7 -3 16 -2 19 1 4 3 -2 6 -13 5 -11 0 -14 -3 -6 -6z"/>
<path d="M18548 2453 c23 -2 61 -2 85 0 23 2 4 4 -43 4 -47 0 -66 -2 -42 -4z"/>
<path d="M1882 1890 c-32 -77 -182 -444 -182 -447 0 -1 13 -3 28 -3 27 0 31 6
87 155 33 85 62 155 65 155 3 0 23 -71 44 -157 21 -87 42 -162 46 -166 4 -5
51 64 105 152 53 89 101 164 106 167 5 3 9 -37 9 -89 0 -52 3 -122 6 -156 6
-57 9 -61 32 -61 l25 0 -8 148 c-4 81 -10 188 -13 237 l-7 90 -117 -194 c-69
-115 -119 -189 -122 -180 -3 8 -25 95 -49 194 -38 156 -46 177 -55 155z"/>
<path d="M4215 1730 c-92 -99 -169 -179 -170 -178 -2 2 10 75 26 163 16 88 29
161 29 163 0 1 -11 2 -25 2 -17 0 -26 -7 -30 -22 -14 -65 -76 -440 -73 -443 1
-2 77 75 167 171 90 96 165 173 168 171 2 -3 -7 -70 -21 -149 -14 -80 -26
-150 -26 -156 0 -7 11 -12 25 -12 14 0 25 4 25 8 0 4 18 109 40 232 22 123 38
225 36 227 -1 2 -78 -78 -171 -177z"/>
<path d="M5273 1681 c-51 -124 -93 -230 -93 -234 0 -5 12 -7 27 -5 26 3 32 14
88 160 70 182 59 186 116 -44 18 -76 36 -138 39 -138 3 0 50 74 105 165 115
189 112 189 114 -2 0 -61 4 -118 7 -127 3 -9 18 -16 32 -16 l25 0 -6 93 c-4
50 -10 152 -13 225 -4 73 -10 135 -14 137 -4 3 -53 -71 -108 -163 -55 -92
-107 -175 -114 -185 -12 -17 -19 2 -57 165 -24 100 -47 186 -50 190 -3 3 -48
-96 -98 -221z"/>
<path d="M8923 1730 c-92 -98 -169 -176 -170 -172 -2 4 10 78 25 165 l29 157
-27 0 c-25 0 -27 -3 -39 -77 -7 -43 -25 -149 -40 -236 l-28 -158 39 38 c22 21
98 102 171 180 72 78 133 141 134 139 2 -1 -10 -75 -26 -165 l-28 -162 26 3
c25 3 27 8 43 98 9 52 27 157 41 233 13 75 23 137 21 137 -2 0 -79 -81 -171
-180z"/>
<path d="M9814 1731 c-92 -100 -169 -179 -171 -178 -1 2 10 76 26 166 l29 162
-26 -3 c-25 -3 -26 -6 -64 -218 -21 -118 -37 -222 -36 -231 2 -9 67 53 168
162 91 97 166 175 168 174 2 -2 -8 -67 -22 -146 -32 -177 -32 -179 -3 -179 21
0 24 10 63 233 23 127 40 233 39 235 -1 1 -78 -78 -171 -177z"/>
<path d="M2453 1865 c-49 -22 -66 -46 -43 -60 5 -3 26 3 47 13 21 11 51 22 67
26 37 9 93 -10 107 -36 11 -21 4 -128 -9 -128 -4 1 -18 7 -32 15 -36 20 -127
18 -175 -4 -163 -75 -125 -281 48 -258 22 3 60 20 85 37 l44 31 -4 -31 c-4
-28 -2 -31 21 -28 24 3 26 7 55 175 25 150 27 176 16 204 -30 70 -130 90 -227
44z m136 -206 c29 -10 32 -14 26 -43 -18 -83 -78 -136 -157 -136 -39 0 -54 5
-75 26 -44 44 -18 119 52 150 37 16 111 18 154 3z"/>
<path d="M3203 1866 c-49 -23 -66 -47 -43 -61 5 -3 29 4 52 16 24 12 63 23 86
23 36 1 48 -4 68 -28 22 -24 24 -34 18 -75 -9 -61 -11 -63 -44 -46 -68 35
-185 9 -244 -53 -37 -40 -48 -118 -21 -158 44 -68 165 -70 235 -4 l32 30 -6
-35 c-6 -32 -5 -35 18 -35 28 0 24 -12 60 195 13 77 22 152 19 167 -15 80
-130 112 -230 64z m132 -208 c46 -21 22 -109 -44 -154 -47 -32 -127 -34 -159
-4 -43 40 -23 111 42 151 36 22 120 26 161 7z"/>
<path d="M3695 1877 c-35 -16 -95 -81 -95 -102 0 -9 10 -15 25 -15 14 0 25 4
25 9 0 5 14 23 31 40 26 26 38 31 80 31 53 0 89 -24 89 -59 0 -32 -38 -70 -78
-77 -20 -4 -40 -12 -44 -18 -15 -22 -7 -36 21 -36 69 0 106 -79 60 -129 -28
-30 -60 -41 -119 -41 -42 0 -52 4 -74 31 -14 17 -26 39 -26 50 0 14 -7 19 -25
19 -33 0 -34 -34 -2 -81 49 -74 150 -88 242 -34 77 45 100 132 49 180 -15 14
-34 25 -43 25 -9 1 1 10 21 21 39 20 68 63 68 99 0 11 -15 37 -33 57 -29 31
-41 37 -88 40 -32 2 -66 -2 -84 -10z"/>
<path d="M5970 1870 c-198 -92 -219 -369 -33 -431 106 -35 241 37 293 154 43
97 22 201 -53 261 -51 40 -139 47 -207 16z m174 -51 c88 -70 69 -233 -36 -306
-53 -36 -139 -43 -184 -15 -107 68 -70 269 61 328 48 21 128 18 159 -7z"/>
<path d="M6725 1866 c-202 -94 -217 -376 -23 -427 155 -42 320 108 306 277
-12 141 -148 214 -283 150z m165 -41 c35 -18 70 -81 70 -126 0 -82 -50 -163
-123 -200 -51 -26 -135 -23 -168 7 -117 106 -19 334 143 334 27 0 62 -7 78
-15z"/>
<path d="M7473 1865 c-87 -40 -141 -131 -142 -239 -2 -141 90 -217 225 -187
67 15 158 90 136 112 -8 9 -17 10 -26 4 -72 -55 -113 -75 -152 -75 -24 0 -55
5 -69 12 -33 15 -65 76 -65 123 l0 35 174 0 c198 0 194 -2 180 85 -19 131
-136 189 -261 130z m142 -29 c39 -17 65 -60 65 -111 l0 -35 -145 0 c-160 0
-160 0 -122 62 49 81 129 114 202 84z"/>
<path d="M2855 1858 c-9 -41 -65 -386 -65 -402 0 -10 9 -16 23 -16 21 0 24 8
46 138 13 75 28 163 33 195 l10 57 84 0 c46 0 84 4 84 9 0 5 3 16 6 25 5 14
-8 16 -105 16 -107 0 -111 -1 -116 -22z"/>
<path d="M4492 1678 c-18 -112 -36 -211 -38 -220 -4 -14 1 -18 20 -18 26 0 31
14 53 155 l8 50 133 3 132 3 -6 -28 c-2 -15 -11 -63 -18 -105 l-13 -78 23 0
c28 0 26 -6 64 215 17 99 34 190 37 203 5 21 2 23 -23 20 -28 -3 -29 -5 -43
-90 l-14 -88 -128 0 c-100 0 -129 3 -129 13 0 16 19 125 26 150 4 13 -1 17
-23 17 l-29 0 -32 -202z"/>
<path d="M6320 1855 c0 -23 3 -25 48 -25 l49 0 -28 -167 c-15 -93 -30 -180
-33 -195 -5 -24 -2 -28 19 -28 26 0 26 -1 65 225 31 182 23 165 80 165 28 0
50 4 50 9 0 5 3 16 6 25 5 14 -10 16 -125 16 l-131 0 0 -25z"/>
<path d="M7077 1861 c-7 -27 0 -31 50 -31 28 0 43 -4 43 -12 0 -7 -14 -92 -30
-188 -16 -96 -30 -178 -30 -182 0 -5 11 -8 23 -8 23 0 25 7 55 179 18 98 32
185 32 194 0 12 12 17 53 19 45 3 52 6 55 26 3 22 2 22 -121 22 -115 0 -125
-2 -130 -19z"/>
<path d="M7810 1874 c0 -3 23 -50 51 -105 28 -54 48 -103 44 -109 -3 -6 -47
-56 -96 -113 -87 -99 -89 -102 -62 -105 22 -3 35 6 73 50 25 29 61 71 81 93
l37 39 46 -92 c40 -79 50 -92 71 -92 14 0 25 3 25 6 0 4 -25 54 -56 110 -32
60 -52 109 -48 117 4 6 39 48 78 92 110 126 104 115 69 115 -25 0 -41 -14
-103 -86 l-73 -87 -44 87 c-37 73 -47 86 -68 86 -14 0 -25 -3 -25 -6z"/>
<path d="M8245 1858 c-9 -42 -65 -386 -65 -403 0 -11 7 -15 22 -13 20 3 25 13
35 73 7 39 15 85 18 103 l6 32 129 0 c97 0 130 -3 130 -12 0 -7 -7 -48 -15
-91 -20 -103 -19 -107 8 -107 23 0 25 8 60 213 21 116 37 215 37 220 0 4 -11
7 -24 7 -22 0 -25 -6 -36 -72 -19 -119 -4 -108 -151 -108 -71 0 -129 2 -129 4
0 2 7 40 15 83 19 98 19 93 -10 93 -17 0 -26 -7 -30 -22z"/>
<path d="M9226 1853 c-10 -48 -66 -390 -66 -402 0 -6 11 -11 24 -11 22 0 24 6
41 108 9 59 19 111 22 115 3 4 39 -43 82 -105 68 -100 80 -113 109 -116 l32
-3 -82 118 c-44 65 -82 125 -84 133 -3 10 37 46 107 100 106 81 110 85 81 88
-25 3 -48 -10 -128 -73 -54 -42 -100 -72 -102 -66 -2 6 1 34 7 61 16 73 14 80
-13 80 -19 0 -26 -7 -30 -27z"/>
<path d="M24110 845 c0 -14 5 -25 10 -25 6 0 10 11 10 25 0 14 -4 25 -10 25
-5 0 -10 -11 -10 -25z"/>
<path d="M24110 800 c0 -5 5 -10 10 -10 6 0 10 5 10 10 0 6 -4 10 -10 10 -5 0
-10 -4 -10 -10z"/>
</g>
</svg>
